<svg width="24" height="24" viewBox="0 0 24 24" fill="none" xmlns="http://www.w3.org/2000/svg">
<path d="M19 4H18V3C18 2.44772 17.5523 2 17 2C16.4477 2 16 2.44772 16 3V4H8V3C8 2.44772 7.55228 2 7 2C6.44772 2 6 2.44772 6 3V4H5C4.46957 4 3.96086 4.21071 3.58579 4.58579C3.21071 4.96086 3 5.46957 3 6V20C3 20.5304 3.21071 21.0391 3.58579 21.4142C3.96086 21.7893 4.46957 22 5 22H19C19.5304 22 20.0391 21.7893 20.4142 21.4142C20.7893 21.0391 21 20.5304 21 20V6C21 5.46957 20.7893 4.96086 20.4142 4.58579C20.0391 4.21071 19.5304 4 19 4ZM19 20H5V10H19V20ZM5 8V6H19V8H5ZM9.85349 17.7535C10.2438 18.1438 10.8765 18.144 11.2671 17.7541L15.9643 13.0648C16.2597 12.7699 16.2588 12.291 15.9623 11.9973C15.6679 11.7057 15.1932 11.7068 14.9002 11.9998L11.2671 15.6329C10.8766 16.0234 10.2434 16.0234 9.85289 15.6329L8.98 14.76C8.68729 14.4673 8.21271 14.4673 7.92 14.76C7.62729 15.0527 7.62729 15.5273 7.92 15.82L9.85349 17.7535Z" fill="#C1C1C1"/>
</svg>
