<svg width="24" height="24" viewBox="0 0 24 24" fill="none" xmlns="http://www.w3.org/2000/svg">
<path d="M20.98 2.56002C20.3393 1.92669 19.4969 1.53788 18.5993 1.46115C17.7017 1.38442 16.8056 1.62462 16.0667 2.14002C18.4418 3.12893 20.3821 4.93909 21.5333 7.24002C21.9777 6.5104 22.1646 5.65289 22.0643 4.80452C21.964 3.95615 21.5822 3.16589 20.98 2.56002Z" fill="black"/>
<path d="M7.61334 2.28665C6.8775 1.70224 5.95319 1.40738 5.01486 1.45774C4.07653 1.5081 3.18908 1.90018 2.52001 2.55999C1.85646 3.22793 1.46347 4.11773 1.4167 5.05808C1.36993 5.99843 1.67268 6.92283 2.26668 7.65332C3.33636 5.27334 5.23738 3.36522 7.61334 2.28665Z" fill="black"/>
<path d="M10.9334 2.72667C9.19279 2.93 7.54461 3.61926 6.17746 4.71556C4.81031 5.81186 3.77942 7.27091 3.20277 8.92574C2.62611 10.5806 2.527 12.3643 2.91677 14.0728C3.30653 15.7814 4.16943 17.3457 5.40671 18.5867L3.70671 20.2867C3.64499 20.3497 3.59629 20.4243 3.56339 20.5061C3.53049 20.588 3.51403 20.6755 3.51496 20.7637C3.51589 20.852 3.53418 20.9391 3.5688 21.0203C3.60342 21.1014 3.65368 21.1749 3.71671 21.2367C3.77975 21.2984 3.85432 21.3471 3.93618 21.38C4.01803 21.4129 4.10557 21.4293 4.19378 21.4284C4.282 21.4275 4.36917 21.4092 4.45031 21.3746C4.53146 21.34 4.60499 21.2897 4.66671 21.2267L6.44005 19.4533C8.06173 20.6805 10.0421 21.3401 12.0757 21.3305C14.1094 21.3209 16.0834 20.6425 17.6934 19.4L19.52 21.2267C19.6476 21.3359 19.8116 21.393 19.9794 21.3865C20.1472 21.38 20.3064 21.3104 20.4251 21.1917C20.5438 21.073 20.6134 20.9138 20.6199 20.746C20.6263 20.5783 20.5693 20.4142 20.46 20.2867L18.6667 18.52C20.0125 17.1415 20.8987 15.3803 21.2037 13.4781C21.5088 11.5759 21.2177 9.62592 20.3705 7.89571C19.5233 6.16551 18.1614 4.73986 16.4718 3.81438C14.7822 2.88891 12.8475 2.50896 10.9334 2.72667ZM13.0534 19.9333C11.3964 20.1504 9.71313 19.8431 8.23976 19.0546C6.76638 18.2661 5.5769 17.036 4.8383 15.537C4.09969 14.038 3.84904 12.3453 4.12153 10.6966C4.39402 9.04788 5.17596 7.52587 6.3576 6.34423C7.53925 5.16259 9.06125 4.38064 10.71 4.10815C12.3587 3.83566 14.0514 4.08632 15.5504 4.82492C17.0494 5.56353 18.2795 6.753 19.0679 8.22638C19.8564 9.69976 20.1637 11.3831 19.9467 13.04C19.7178 14.788 18.9179 16.4114 17.6713 17.6579C16.4248 18.9045 14.8014 19.7044 13.0534 19.9333Z" fill="black"/>
<path d="M12.0733 11.56V11.8704L12.3515 12.0081L16.0305 13.8294L16.0233 13.8585L16.3875 14.0361C16.4115 14.0478 16.4299 14.0686 16.4386 14.0939C16.4473 14.1191 16.4456 14.1468 16.4339 14.1708C16.4222 14.1949 16.4014 14.2133 16.3761 14.222C16.3511 14.2306 16.3238 14.229 16.3 14.2177C16.2997 14.2175 16.2994 14.2174 16.2991 14.2173L11.8733 12.0231V6.33334C11.8733 6.30682 11.8838 6.28138 11.9026 6.26263C11.9213 6.24387 11.9468 6.23334 11.9733 6.23334C11.9998 6.23334 12.0252 6.24387 12.044 6.26263C12.0628 6.28138 12.0733 6.30682 12.0733 6.33334V11.56Z" fill="black" stroke="black"/>
</svg>
