<svg width="24" height="24" viewBox="0 0 24 24" fill="none" xmlns="http://www.w3.org/2000/svg">
<path d="M21.7967 3.93335H20.2957C19.8907 3.93335 19.5624 4.26167 19.5624 4.66668C19.5624 5.07169 19.8907 5.40002 20.2957 5.40002H21.6248V21.5333H2.37515V5.40002H3.70429C4.1093 5.40002 4.43762 5.07169 4.43762 4.66668C4.43762 4.26167 4.1093 3.93335 3.70429 3.93335H2.20328C2.04257 3.93621 1.88397 3.97282 1.73652 4.04108C1.58908 4.10934 1.45569 4.20792 1.34396 4.33118C1.23224 4.45443 1.14438 4.59996 1.08539 4.75945C1.0264 4.91894 0.997445 5.08926 1.00018 5.26068V21.6727C0.997445 21.8441 1.0264 22.0144 1.08539 22.1739C1.14438 22.3334 1.23224 22.4789 1.34396 22.6022C1.45569 22.7254 1.58908 22.824 1.73652 22.8923C1.88397 22.9605 2.04257 22.9971 2.20328 23H21.7967C21.9574 22.9971 22.116 22.9605 22.2635 22.8923C22.4109 22.824 22.5443 22.7254 22.656 22.6022C22.7678 22.4789 22.8556 22.3334 22.9146 22.1739C22.9736 22.0144 23.0026 21.8441 22.9998 21.6727V5.26068C23.0026 5.08926 22.9736 4.91894 22.9146 4.75945C22.8556 4.59996 22.7678 4.45443 22.656 4.33118C22.5443 4.20792 22.4109 4.10934 22.2635 4.04108C22.116 3.97282 21.9574 3.93621 21.7967 3.93335Z" fill="black"/>
<path d="M5.12524 10.4875C5.12524 10.1078 5.43304 9.79999 5.81273 9.79999C6.19242 9.79999 6.50022 10.1078 6.50022 10.4875V10.5792C6.50022 10.9589 6.19242 11.2667 5.81273 11.2667C5.43304 11.2667 5.12524 10.9589 5.12524 10.5792V10.4875Z" fill="black"/>
<path d="M9.25012 10.4875C9.25012 10.1078 9.55792 9.79999 9.93761 9.79999C10.3173 9.79999 10.6251 10.1078 10.6251 10.4875V10.5792C10.6251 10.9589 10.3173 11.2667 9.93761 11.2667C9.55792 11.2667 9.25012 10.9589 9.25012 10.5792V10.4875Z" fill="black"/>
<path d="M13.375 10.4875C13.375 10.1078 13.6828 9.79999 14.0625 9.79999C14.4422 9.79999 14.75 10.1078 14.75 10.4875V10.5792C14.75 10.9589 14.4422 11.2667 14.0625 11.2667C13.6828 11.2667 13.375 10.9589 13.375 10.5792V10.4875Z" fill="black"/>
<path d="M17.5 10.4875C17.5 10.1078 17.8078 9.79999 18.1875 9.79999C18.5672 9.79999 18.875 10.1078 18.875 10.4875V10.5792C18.875 10.9589 18.5672 11.2667 18.1875 11.2667C17.8078 11.2667 17.5 10.9589 17.5 10.5792V10.4875Z" fill="black"/>
<path d="M5.12524 14.1542C5.12524 13.7745 5.43304 13.4667 5.81273 13.4667C6.19242 13.4667 6.50022 13.7745 6.50022 14.1542V14.2459C6.50022 14.6256 6.19242 14.9334 5.81273 14.9334C5.43304 14.9334 5.12524 14.6256 5.12524 14.2459V14.1542Z" fill="black"/>
<path d="M9.25012 14.1542C9.25012 13.7745 9.55792 13.4667 9.93761 13.4667C10.3173 13.4667 10.6251 13.7745 10.6251 14.1542V14.2459C10.6251 14.6256 10.3173 14.9334 9.93761 14.9334C9.55792 14.9334 9.25012 14.6256 9.25012 14.2459V14.1542Z" fill="black"/>
<path d="M13.375 14.1542C13.375 13.7745 13.6828 13.4667 14.0625 13.4667C14.4422 13.4667 14.75 13.7745 14.75 14.1542V14.2459C14.75 14.6256 14.4422 14.9334 14.0625 14.9334C13.6828 14.9334 13.375 14.6256 13.375 14.2459V14.1542Z" fill="black"/>
<path d="M17.5 14.1542C17.5 13.7745 17.8078 13.4667 18.1875 13.4667C18.5672 13.4667 18.875 13.7745 18.875 14.1542V14.2459C18.875 14.6256 18.5672 14.9334 18.1875 14.9334C17.8078 14.9334 17.5 14.6256 17.5 14.2459V14.1542Z" fill="black"/>
<path d="M5.12524 17.8209C5.12524 17.4412 5.43304 17.1334 5.81273 17.1334C6.19242 17.1334 6.50022 17.4412 6.50022 17.8209V17.9125C6.50022 18.2922 6.19242 18.6 5.81273 18.6C5.43304 18.6 5.12524 18.2922 5.12524 17.9125V17.8209Z" fill="black"/>
<path d="M9.25012 17.8209C9.25012 17.4412 9.55792 17.1334 9.93761 17.1334C10.3173 17.1334 10.6251 17.4412 10.6251 17.8209V17.9125C10.6251 18.2922 10.3173 18.6 9.93761 18.6C9.55792 18.6 9.25012 18.2922 9.25012 17.9125V17.8209Z" fill="black"/>
<path d="M13.375 17.8208C13.375 17.4412 13.6828 17.1334 14.0625 17.1334C14.4422 17.1334 14.75 17.4412 14.75 17.8208V17.9125C14.75 18.2922 14.4422 18.6 14.0625 18.6C13.6828 18.6 13.375 18.2922 13.375 17.9125V17.8208Z" fill="black"/>
<path d="M17.5 17.8209C17.5 17.4412 17.8078 17.1334 18.1875 17.1334C18.5672 17.1334 18.875 17.4412 18.875 17.8209V17.9125C18.875 18.2922 18.5672 18.6 18.1875 18.6C17.8078 18.6 17.5 18.2922 17.5 17.9125V17.8209Z" fill="black"/>
<path d="M6.50011 6.86666C6.68244 6.86666 6.85731 6.7894 6.98624 6.65188C7.11517 6.51435 7.1876 6.32782 7.1876 6.13333V1.73333C7.1876 1.53884 7.11517 1.35231 6.98624 1.21479C6.85731 1.07726 6.68244 1 6.50011 1C6.31778 1 6.14291 1.07726 6.01398 1.21479C5.88505 1.35231 5.81262 1.53884 5.81262 1.73333V6.13333C5.81262 6.32782 5.88505 6.51435 6.01398 6.65188C6.14291 6.7894 6.31778 6.86666 6.50011 6.86666Z" fill="black"/>
<path d="M17.4999 6.86666C17.6822 6.86666 17.8571 6.7894 17.986 6.65188C18.1149 6.51435 18.1874 6.32782 18.1874 6.13333V1.73333C18.1874 1.53884 18.1149 1.35231 17.986 1.21479C17.8571 1.07726 17.6822 1 17.4999 1C17.3175 1 17.1427 1.07726 17.0137 1.21479C16.8848 1.35231 16.8124 1.53884 16.8124 1.73333V6.13333C16.8124 6.32782 16.8848 6.51435 17.0137 6.65188C17.1427 6.7894 17.3175 6.86666 17.4999 6.86666Z" fill="black"/>
<path d="M8.5625 4.66668C8.5625 4.26167 8.89082 3.93335 9.29583 3.93335H14.7041C15.1091 3.93335 15.4374 4.26167 15.4374 4.66668C15.4374 5.07169 15.1091 5.40002 14.7041 5.40002H9.29583C8.89082 5.40002 8.5625 5.07169 8.5625 4.66668Z" fill="black"/>
</svg>
