<svg width="24" height="24" viewBox="0 0 24 24" fill="none" xmlns="http://www.w3.org/2000/svg">
<path d="M12.0667 7.23331C9.41146 7.23331 7.30002 9.34475 7.30002 12C7.30002 14.6552 9.41146 16.7666 12.0667 16.7666C14.7219 16.7666 16.8334 14.6552 16.8334 12C16.8334 9.34475 14.7219 7.23331 12.0667 7.23331ZM12.0667 15.2333C10.2553 15.2333 8.83336 13.8114 8.83336 12C8.83336 10.1885 10.2553 8.76665 12.0667 8.76665C13.8781 8.76665 15.3 10.1885 15.3 12C15.3 13.8114 13.8781 15.2333 12.0667 15.2333Z" fill="#C1C1C1" stroke="#C1C1C1" stroke-width="0.2"/>
<path d="M20.6214 6.51406L20.6215 6.51408L20.6228 6.51137C20.841 6.07492 20.7694 5.49463 20.4041 5.12927L18.8041 3.52927C18.4387 3.16391 17.8584 3.09231 17.422 3.31054L17.422 3.3105L17.4193 3.31193L15.7271 4.22311L14.8142 3.85793L14.2286 2.03604L14.2282 2.03502C14.0827 1.59841 13.6474 1.23331 13.1334 1.23331H10.8667C10.3549 1.23331 9.91325 1.59744 9.83564 2.11058L9.25662 3.91197C8.88879 3.98039 8.57437 4.10527 8.26445 4.28519L6.58078 3.3786L6.58081 3.37856L6.5781 3.3772C6.14164 3.15898 5.56135 3.23058 5.196 3.59594L3.596 5.19594C3.23064 5.56129 3.15904 6.14158 3.37726 6.57803L3.37725 6.57804L3.37799 6.57945L4.22357 8.20557C4.162 8.36198 4.10058 8.53088 4.03973 8.69822L4.0394 8.69914C3.97844 8.86676 3.91806 9.0328 3.85783 9.18589L2.0361 9.77144L2.03508 9.77178C1.59847 9.91732 1.23337 10.3527 1.23337 10.8666V13.1333C1.23337 13.6497 1.60116 14.0846 2.10431 14.229L3.92466 14.8141L4.28983 15.7271L3.37866 17.4192L3.37862 17.4192L3.37726 17.4219C3.15904 17.8584 3.23064 18.4387 3.596 18.804L5.196 20.404C5.56135 20.7694 6.14164 20.841 6.5781 20.6228L6.57812 20.6228L6.58078 20.6214L8.27296 19.7102L9.18533 20.0751L9.7712 21.963L9.77118 21.963L9.77184 21.9649C9.91738 22.4016 10.3527 22.7666 10.8667 22.7666H13.1334C13.6474 22.7666 14.0827 22.4016 14.2282 21.9649L14.2283 21.9649L14.2289 21.963L14.8148 20.0751L15.7271 19.7102L17.4193 20.6214L17.4193 20.6214L17.422 20.6228C17.8584 20.841 18.4387 20.7694 18.8041 20.404L20.4041 18.804C20.7694 18.4387 20.841 17.8584 20.6228 17.4219L20.6229 17.4219L20.6214 17.4192L19.7102 15.7271L20.0752 14.8147L21.963 14.2288L21.963 14.2288L21.965 14.2282C22.4016 14.0826 22.7667 13.6473 22.7667 13.1333V10.8666C22.7667 10.3575 22.4061 9.85094 21.8958 9.70429L20.0754 9.11917L19.7102 8.20624L20.6214 6.51406ZM18.9042 13.571L18.847 13.5885L18.8353 13.647L18.7707 13.9702L18.1775 15.3544L17.981 15.6819L17.9515 15.7309L17.9789 15.7812L19.1431 17.9155L17.9156 19.143L15.7813 17.9789L15.731 17.9514L15.6819 17.9809L15.3504 18.1798C15.3501 18.18 15.3498 18.1802 15.3495 18.1803C14.8907 18.4424 14.433 18.6386 13.9764 18.7694L13.6471 18.8353L13.5885 18.847L13.5711 18.9041L12.8594 21.2333H11.1407L10.429 18.9041L10.4116 18.847L10.353 18.8353L10.0299 18.7706L8.64566 18.1774L8.31816 17.9809L8.26907 17.9514L8.21882 17.9789L6.08451 19.143L4.85699 17.9155L6.02116 15.7812L6.04857 15.7309L6.01912 15.6819L5.81968 15.3495C5.55758 14.8906 5.36145 14.433 5.23063 13.9764L5.16477 13.647L5.15305 13.5885L5.09593 13.571L2.76671 12.8593V11.1415L4.96159 10.4959L5.00818 10.4822L5.02622 10.4371L5.15956 10.1038L5.16041 10.1041L5.16372 10.0909C5.29443 9.56809 5.49044 9.11017 5.75301 8.65051L5.95246 8.3181L5.9811 8.27035L5.95561 8.22085L4.8557 6.08574L6.08379 4.85765L8.15102 6.02047L8.20166 6.04896L8.25149 6.01906L8.58389 5.81962C9.04356 5.55704 9.50148 5.36103 10.0243 5.23033L10.0245 5.23123L10.0372 5.22616L10.3705 5.09283L10.4146 5.07521L10.4288 5.02996L11.1401 2.76665H12.86L13.5713 5.02996L13.5855 5.07521L13.6296 5.09283L13.9629 5.22616L13.9627 5.22665L13.9726 5.22947C14.4304 5.36028 14.8894 5.55678 15.3495 5.81962L15.6819 6.01906L15.731 6.04851L15.7813 6.0211L17.9156 4.85693L19.1431 6.08445L17.9789 8.21876L17.9515 8.26901L17.981 8.3181L18.1799 8.64959C18.1801 8.64989 18.1802 8.65019 18.1804 8.65048C18.4425 9.10931 18.6386 9.567 18.7694 10.0236L18.8353 10.3529L18.847 10.4115L18.9042 10.4289L21.2334 11.1407V12.8593L18.9042 13.571Z" fill="#C1C1C1" stroke="#C1C1C1" stroke-width="0.2"/>
</svg>
