<svg width="24" height="24" viewBox="0 0 24 24" fill="none" xmlns="http://www.w3.org/2000/svg">
<path d="M15 2C15 1.44772 14.5523 1 14 1H10C9.44772 1 9 1.44772 9 2C9 2.55228 9.44772 3 10 3H14C14.5523 3 15 2.55228 15 2ZM11 13C11 13.5523 11.4477 14 12 14C12.5523 14 13 13.5523 13 13V9C13 8.44772 12.5523 8 12 8C11.4477 8 11 8.44772 11 9V13ZM19.03 7.39L19.8005 6.61948C20.1678 6.2522 20.1965 5.66087 19.8329 5.28993C19.7932 5.24935 19.7531 5.2091 19.7128 5.16918C19.3467 4.80699 18.7622 4.83784 18.398 5.20198L17.62 5.98C16.0273 4.69833 14.0443 3.99969 12 4C7.03 4 3 8.03 3 13C3 17.97 7.02 22 12 22C13.6943 22.0009 15.3544 21.5232 16.7891 20.622C18.2238 19.7207 19.3748 18.4325 20.1094 16.9057C20.8441 15.379 21.1325 13.6758 20.9415 11.9923C20.7506 10.3087 20.088 8.71341 19.03 7.39ZM12 20C8.13 20 5 16.87 5 13C5 9.13 8.13 6 12 6C15.87 6 19 9.13 19 13C19 16.87 15.87 20 12 20Z" fill="#C1C1C1"/>
</svg>
